<svg width="148" height="63" viewBox="0 0 148 63" fill="none" xmlns="http://www.w3.org/2000/svg">
<g clip-path="url(#clip0_94_437)">
<g clip-path="url(#clip1_94_437)">
<path fill-rule="evenodd" clip-rule="evenodd" d="M33.7484 15.1633C33.727 15.1925 33.6424 15.3254 33.5603 15.4589C33.346 15.8076 32.6822 16.2576 31.0773 17.142C30.0664 17.6991 29.9606 17.7906 29.7079 18.3256C29.4464 18.8798 28.3197 21.7944 28.2842 22.0087C28.2489 22.2227 28.3733 22.5158 28.7326 23.0655C28.8041 23.1749 29.0658 23.684 29.3139 24.1966C29.5685 24.7228 29.8128 25.161 29.8748 25.203C30.0328 25.31 29.969 25.4175 29.6439 25.5911C29.2802 25.7854 28.9399 26.0798 28.7197 26.3906C28.5208 26.6713 26.9812 30.6611 26.1442 33.0655C25.9013 33.763 25.6778 34.4008 25.6476 34.4826L25.5927 34.6314L27.192 35.2135L28.7914 35.7957L28.9243 35.5229C28.9973 35.3728 29.1059 35.2136 29.1655 35.1691L29.274 35.0881L30.9619 35.7024C32.9506 36.4262 32.8601 36.3645 32.6764 36.8693L32.57 37.1616L34.1354 37.7503C34.9963 38.0742 35.708 38.3381 35.7167 38.337C35.7255 38.336 36.149 37.1917 36.658 35.7945C37.1669 34.3972 37.8254 32.6496 38.1213 31.911C38.8706 30.0407 38.9445 29.5116 38.5676 28.7171C38.3817 28.3249 38.3564 28.3942 38.758 28.1932C39.4042 27.8696 39.4704 27.7293 40.7648 23.9416L41.6096 21.4691L41.7311 20.63C41.9187 19.3333 41.992 18.8795 42.0616 18.5845C42.0986 18.4281 42.1041 18.2758 42.0749 18.2257C42.0003 18.0981 33.8064 15.0845 33.7484 15.1633ZM40.7574 18.4445L41.1646 18.6051L41.1277 18.8775C41.1075 19.0274 41.0616 19.4549 41.0258 19.8277C40.9475 20.6428 40.8507 21.0681 40.4088 22.539C40.0205 23.8317 40.0803 23.7169 39.8878 23.5381C39.6387 23.307 39.1303 23.151 38.8472 23.219L38.6175 23.274L38.5288 23.0459C38.3854 22.6766 38.3636 22.6411 38.1498 22.4303C37.7438 22.03 37.2442 21.9554 36.6727 22.2098C36.447 22.3104 36.3991 22.3152 36.349 22.2429C35.973 21.7014 35.3738 21.4382 34.8347 21.5779C34.6047 21.6376 34.4648 21.7213 34.1064 22.0134C34.0339 22.0726 34.0229 22.0683 33.9016 21.9339C33.4208 21.4009 32.352 21.4318 31.781 21.995C31.5383 22.2346 31.5265 22.1078 31.7405 21.5611C32.0092 20.8749 31.998 20.8874 32.3096 20.9193C33.7248 21.0645 35.0623 20.8183 35.8241 20.2727C35.943 20.1874 36.0771 20.1002 36.1218 20.0789C36.757 19.7754 37.4972 18.7854 37.2715 18.5406C37.0544 18.3048 36.63 18.2974 36.5462 18.5277C36.4928 18.6745 36.0613 19.1619 35.7723 19.402C34.8776 20.1452 33.6387 20.3968 32.0671 20.1546C31.5709 20.0782 31.5239 20.1092 31.2741 20.6797C30.9415 21.4392 30.9172 21.4742 30.7314 21.4625C30.3935 21.4414 30.367 21.793 30.6754 22.208C30.9406 22.5651 31.1069 23.0074 31.1775 23.5439C31.289 24.3908 30.5326 25.0509 30.2636 24.3414C30.1107 23.9376 29.7425 23.1861 29.4559 22.6929C29.0396 21.976 29.0104 22.2138 29.7605 20.2123C30.4695 18.3207 30.4423 18.3716 30.8734 18.1283C31.0246 18.0431 31.2847 17.8959 31.4516 17.8016C31.6183 17.707 31.8596 17.5727 31.9876 17.503C32.1157 17.4333 32.4703 17.21 32.7755 17.0067C33.5586 16.4853 33.7506 16.3598 34.0233 16.1904L34.2633 16.0413L37.3067 17.1625C38.9806 17.7792 40.5335 18.3561 40.7574 18.4445ZM37.6235 22.9775C37.6809 23.0398 37.7659 23.1885 37.8124 23.3078L37.897 23.5249L37.3258 25.0949C37.0118 25.9585 36.7071 26.8363 36.6488 27.0456L36.543 27.4263L36.2966 27.5485C35.9634 27.714 35.6756 27.6919 35.4335 27.4822C35.1276 27.217 35.1066 27.3175 35.9363 25.0862C36.7317 22.9468 36.7361 22.938 37.0427 22.8605C37.3496 22.7827 37.4657 22.8062 37.6235 22.9775ZM35.6178 22.5108C35.8658 22.7799 35.7628 23.2438 34.9724 25.4188C34.5212 26.6603 34.4481 26.8333 34.3251 26.9498C34.0364 27.2233 33.5871 27.1351 33.2603 26.7405L33.1026 26.5501L33.8676 24.4896L34.6326 22.429L34.8611 22.3344C35.122 22.2264 35.4196 22.2958 35.6178 22.5108ZM39.5039 24.3212C39.6786 24.6399 39.6751 24.6622 39.2668 25.859C38.6784 27.5835 38.3986 27.9129 37.7294 27.6693C37.2496 27.4947 37.2589 27.4418 38.1701 25.1536L38.5677 24.1552L38.7706 24.0602C39.0567 23.9262 39.3435 24.0283 39.5039 24.3212ZM33.3694 22.5445C33.5513 22.8063 33.5404 22.8565 32.922 24.6045L32.3488 26.2247L32.1043 26.2945C31.6955 26.4111 31.2521 26.1803 30.9829 25.7108C30.8475 25.4744 30.8644 25.442 31.314 25.08C31.8803 24.6238 32.0229 24.2376 31.928 23.4168C31.8294 22.5636 32.9227 21.902 33.3694 22.5445ZM36.9988 28.5111C37.5943 29.407 37.6094 29.8624 37.0844 31.1073L36.8125 31.7523L32.9119 30.3326L29.0112 28.9129L29.3381 28.0835C29.7174 27.121 29.7867 27.0296 30.3534 26.7448L30.6908 26.5752L30.8449 26.7099C31.2172 27.0353 31.7505 27.1554 32.2693 27.0307L32.5376 26.9662L32.6404 27.1156C33.0592 27.7239 33.8026 27.9998 34.3551 27.7518L34.5838 27.6493L34.8433 27.9412C35.2775 28.4297 35.9722 28.5688 36.5516 28.2832C36.7843 28.1686 36.7643 28.1584 36.9988 28.5111ZM23.5187 26.9687C21.8849 26.5474 20.5695 27.2292 20.0082 28.7884L19.7904 29.3934L19.8631 29.8008C19.9031 30.0249 19.9448 30.3752 19.9558 30.5792C20.0284 31.9279 20.998 33.0005 22.7199 33.637L22.8688 33.692L23.986 30.6228C24.9892 27.8663 25.0967 27.548 25.0406 27.4992C24.9571 27.4265 23.998 27.0922 23.5187 26.9687ZM25.2361 29.6043C24.8691 30.6067 24.3867 31.9101 24.1643 32.5008C23.9417 33.0914 22.8889 35.9993 21.8248 38.9628L19.8897 44.3511L20.4327 44.5487C20.8333 44.6945 20.983 44.732 21.0031 44.6914C21.0181 44.6611 22.3797 40.9361 24.0289 36.4135L27.0275 28.1909L26.4655 27.9863L25.9034 27.7817L25.2361 29.6043ZM35.729 40.76L32.7073 49.062L33.2845 49.2672L33.8617 49.4725L36.8592 41.2054C38.9788 35.3601 39.8461 32.9231 39.8197 32.8866C39.7993 32.8582 39.5504 32.75 39.2666 32.6464L38.7508 32.4578L35.729 40.76ZM39.5587 36.2341L38.4355 39.3199L39.0067 39.4995C39.8788 39.7738 41.0913 39.8101 41.661 39.5787C42.0239 39.4313 42.6453 39.04 42.7855 38.8704C42.8699 38.7682 43.0797 38.546 43.2515 38.3766C44.2443 37.3973 44.3347 35.5825 43.44 34.5899C42.9736 34.0725 42.8041 33.9705 41.6951 33.5407L40.6819 33.1482L39.5587 36.2341ZM19.1111 31.2462C19.0678 31.3233 18.4359 33.008 17.7072 34.9901L16.3821 38.5938L16.7151 38.7499C18.5326 39.6021 19.1707 41.4253 18.3962 43.5533L18.3145 43.7777L18.7046 43.9197L19.0946 44.0617L20.8469 39.2473L22.5992 34.4328L22.3672 34.3208C22.2395 34.2593 21.9513 34.1297 21.7267 34.0331C20.6979 33.5905 19.6918 32.5092 19.3904 31.522C19.2566 31.0838 19.222 31.0495 19.1111 31.2462ZM42.3673 40.1322C41.7436 40.4418 41.1676 40.5571 40.1616 40.5736L39.6127 40.5826L38.8888 40.3236L38.1649 40.0648L36.407 44.8939L34.6491 49.723L35.0391 49.865L35.429 50.0069L35.5939 49.5541C36.3283 47.5363 37.8051 46.7056 39.8246 47.1741L40.268 47.2769L41.529 43.8111C43.0498 39.6321 43.0083 39.814 42.3673 40.1322ZM29.2676 37.1122C28.7263 38.62 28.7129 38.5773 29.8237 38.8812C30.9908 39.2004 30.8922 39.2605 31.4015 37.9186L31.8011 36.8652L30.72 36.4717L29.6388 36.0781L29.2676 37.1122ZM26.5518 35.8509L25.2852 35.4045L23.5322 40.2209L21.7791 45.0374L26.845 46.8949C29.6311 47.9165 31.9138 48.7536 31.9178 48.755C31.9218 48.7565 32.723 46.5875 33.6982 43.9353L35.4711 39.1128L33.8545 38.5102C32.9652 38.1787 32.233 37.9098 32.2271 37.9124C32.2213 37.9152 32.1182 38.2367 31.9979 38.627C31.5971 39.9277 31.15 40.1804 29.8664 39.8318C28.0749 39.3452 27.7508 38.8381 28.2878 37.3627L28.5832 36.5513L28.2007 36.4243C27.9904 36.3544 27.2484 36.0963 26.5518 35.8509ZM15.8948 39.927C15.409 41.4967 15.889 42.7312 17.2319 43.3661L17.5441 43.5138L17.7324 42.9081C18.2217 41.3331 17.8176 40.2619 16.4195 39.4289L16.1066 39.2424L15.8948 39.927ZM39.5952 47.8882C38.0596 47.6501 37.0814 48.1792 36.4963 49.564C36.3864 49.8241 36.2653 50.0933 36.2273 50.162L36.158 50.2873L36.5387 50.391C37.3453 50.6106 38.1958 50.4179 38.8934 49.8577C39.4101 49.4427 39.4648 49.3654 39.7606 48.6346L40.0217 47.9893L39.9109 47.9547C39.8499 47.9355 39.7079 47.9056 39.5952 47.8882Z" fill="white"/>
<path d="M38.5852 9.68193C36.2958 8.95505 36.3535 8.86963 33.9166 15.5649L41.669 18.3866C42.5158 15.183 44.4583 11.8196 42.8138 11.221L38.5852 9.68193Z" stroke="white" stroke-width="0.8"/>
<circle cx="40.8099" cy="16.5441" r="0.4375" transform="rotate(20 40.8099 16.5441)" fill="white"/>
<circle cx="41.4085" cy="14.8996" r="0.4375" transform="rotate(20 41.4085 14.8996)" fill="white"/>
</g>
<path d="M60.72 41.24L59.05 39.57C58.4633 40.09 57.7967 40.4967 57.05 40.79C56.31 41.0833 55.5267 41.23 54.7 41.23C53.7467 41.23 52.8533 41.0433 52.02 40.67C51.1867 40.29 50.4533 39.77 49.82 39.11C49.1867 38.4433 48.69 37.67 48.33 36.79C47.9767 35.91 47.8 34.97 47.8 33.97C47.8 32.97 47.9767 32.0333 48.33 31.16C48.69 30.28 49.1867 29.5067 49.82 28.84C50.4533 28.1733 51.1867 27.6533 52.02 27.28C52.8533 26.9 53.7467 26.71 54.7 26.71C55.6533 26.71 56.5433 26.9 57.37 27.28C58.2033 27.6533 58.9367 28.1733 59.57 28.84C60.2033 29.5067 60.6967 30.28 61.05 31.16C61.41 32.0333 61.59 32.97 61.59 33.97C61.59 34.85 61.45 35.68 61.17 36.46C60.89 37.24 60.5033 37.9433 60.01 38.57L61.71 40.25L60.72 41.24ZM54.7 39.83C55.3067 39.83 55.9 39.72 56.48 39.5C57.0667 39.28 57.5833 38.9667 58.03 38.56L55.96 36.49L56.95 35.49L58.98 37.53C59.3733 37.03 59.6733 36.4733 59.88 35.86C60.0867 35.2467 60.19 34.6167 60.19 33.97C60.19 33.1633 60.0467 32.4067 59.76 31.7C59.4733 30.9933 59.0767 30.37 58.57 29.83C58.07 29.29 57.4867 28.87 56.82 28.57C56.16 28.2633 55.4533 28.11 54.7 28.11C53.9333 28.11 53.2167 28.2667 52.55 28.58C51.89 28.8867 51.3067 29.3133 50.8 29.86C50.3 30.4 49.9067 31.0233 49.62 31.73C49.34 32.43 49.2 33.1767 49.2 33.97C49.2 34.7767 49.3433 35.5333 49.63 36.24C49.9167 36.9467 50.3133 37.57 50.82 38.11C51.3267 38.65 51.91 39.0733 52.57 39.38C53.2367 39.68 53.9467 39.83 54.7 39.83ZM63.1906 37.17V31H64.5906V36.89C64.5906 37.4367 64.724 37.9333 64.9906 38.38C65.2573 38.8267 65.614 39.1833 66.0606 39.45C66.514 39.7167 67.0106 39.85 67.5506 39.85C68.0973 39.85 68.5906 39.7167 69.0306 39.45C69.4773 39.1833 69.834 38.8267 70.1006 38.38C70.3673 37.9333 70.5006 37.4367 70.5006 36.89V31H71.9006L71.9106 41H70.5106L70.5006 39.6C70.1473 40.1067 69.6873 40.51 69.1206 40.81C68.5606 41.11 67.9473 41.26 67.2806 41.26C66.5273 41.26 65.8406 41.0767 65.2206 40.71C64.6006 40.3433 64.1073 39.85 63.7406 39.23C63.374 38.61 63.1906 37.9233 63.1906 37.17ZM73.9031 31H75.3031V41H73.9031V31ZM74.6131 29.25C74.3865 29.25 74.1931 29.1767 74.0331 29.03C73.8798 28.8767 73.8031 28.6867 73.8031 28.46C73.8031 28.2333 73.8798 28.0467 74.0331 27.9C74.1931 27.7467 74.3865 27.67 74.6131 27.67C74.8331 27.67 75.0198 27.7467 75.1731 27.9C75.3331 28.0467 75.4131 28.2333 75.4131 28.46C75.4131 28.6867 75.3365 28.8767 75.1831 29.03C75.0298 29.1767 74.8398 29.25 74.6131 29.25ZM84.7541 38.49L86.0041 39.17C85.5507 39.8033 84.9741 40.31 84.2741 40.69C83.5807 41.07 82.8274 41.26 82.0141 41.26C81.0941 41.26 80.2541 41.0233 79.4941 40.55C78.7407 40.0767 78.1374 39.4433 77.6841 38.65C77.2374 37.85 77.0141 36.9667 77.0141 36C77.0141 35.2667 77.1441 34.5833 77.4041 33.95C77.6641 33.31 78.0207 32.75 78.4741 32.27C78.9341 31.7833 79.4674 31.4033 80.0741 31.13C80.6807 30.8567 81.3274 30.72 82.0141 30.72C82.8274 30.72 83.5807 30.91 84.2741 31.29C84.9741 31.67 85.5507 32.18 86.0041 32.82L84.7541 33.49C84.4074 33.05 83.9907 32.7133 83.5041 32.48C83.0174 32.24 82.5207 32.12 82.0141 32.12C81.3407 32.12 80.7307 32.3 80.1841 32.66C79.6374 33.0133 79.2041 33.4833 78.8841 34.07C78.5707 34.6567 78.4141 35.3 78.4141 36C78.4141 36.7 78.5741 37.3433 78.8941 37.93C79.2207 38.5167 79.6574 38.9867 80.2041 39.34C80.7507 39.6867 81.3541 39.86 82.0141 39.86C82.5607 39.86 83.0741 39.7333 83.5541 39.48C84.0341 39.2267 84.4341 38.8967 84.7541 38.49ZM95.4827 41H93.8727L91.0727 36.17L89.0727 38.56V41H87.6727V26H89.0727V36.38L93.5827 31H95.4127L92.0227 35.03L95.4827 41ZM106.247 27H107.647V41H106.247V34.2H98.8969V41H97.4969V27H98.8969V32.8H106.247V27ZM110.055 31H111.455V41H110.055V31ZM110.765 29.25C110.539 29.25 110.345 29.1767 110.185 29.03C110.032 28.8767 109.955 28.6867 109.955 28.46C109.955 28.2333 110.032 28.0467 110.185 27.9C110.345 27.7467 110.539 27.67 110.765 27.67C110.985 27.67 111.172 27.7467 111.325 27.9C111.485 28.0467 111.565 28.2333 111.565 28.46C111.565 28.6867 111.489 28.8767 111.335 29.03C111.182 29.1767 110.992 29.25 110.765 29.25ZM113.825 41V31H115.225V32.38C115.578 31.8733 116.038 31.47 116.605 31.17C117.172 30.87 117.788 30.72 118.455 30.72C118.842 30.72 119.215 30.77 119.575 30.87L119.005 32.26C118.725 32.1733 118.452 32.13 118.185 32.13C117.645 32.13 117.148 32.2633 116.695 32.53C116.248 32.7967 115.892 33.1533 115.625 33.6C115.358 34.0467 115.225 34.5433 115.225 35.09V41H113.825ZM124.709 41.26C123.789 41.26 122.949 41.0233 122.189 40.55C121.436 40.0767 120.833 39.4433 120.379 38.65C119.933 37.85 119.709 36.9667 119.709 36C119.709 35.2667 119.839 34.5833 120.099 33.95C120.359 33.31 120.716 32.75 121.169 32.27C121.629 31.7833 122.163 31.4033 122.769 31.13C123.376 30.8567 124.023 30.72 124.709 30.72C125.449 30.72 126.129 30.8667 126.749 31.16C127.376 31.4533 127.913 31.8633 128.359 32.39C128.813 32.9167 129.153 33.5333 129.379 34.24C129.613 34.9467 129.709 35.71 129.669 36.53H121.189C121.269 37.1633 121.469 37.73 121.789 38.23C122.116 38.73 122.529 39.1267 123.029 39.42C123.536 39.7067 124.096 39.8533 124.709 39.86C125.376 39.86 125.976 39.6867 126.509 39.34C127.049 38.9933 127.483 38.5167 127.809 37.91L129.229 38.24C128.829 39.1267 128.226 39.8533 127.419 40.42C126.613 40.98 125.709 41.26 124.709 41.26ZM121.149 35.4H128.259C128.213 34.78 128.023 34.2133 127.689 33.7C127.363 33.18 126.939 32.7667 126.419 32.46C125.899 32.1467 125.329 31.99 124.709 31.99C124.089 31.99 123.523 32.1433 123.009 32.45C122.496 32.75 122.076 33.16 121.749 33.68C121.423 34.1933 121.223 34.7667 121.149 35.4Z" fill="white"/>
</g>
<defs>
<clipPath id="clip0_94_437">
<rect width="148" height="63" fill="white"/>
</clipPath>
<clipPath id="clip1_94_437">
<rect width="50" height="50" fill="white" transform="translate(17.101) rotate(20)"/>
</clipPath>
</defs>
</svg>
