<svg width="27" height="26" viewBox="0 0 27 26" fill="none" xmlns="http://www.w3.org/2000/svg">
<path d="M25.0365 22.3364L27.0001 24.3M26.0183 18.4091C26.0183 21.1203 23.8203 23.3182 21.1092 23.3182C18.398 23.3182 16.2001 21.1203 16.2001 18.4091C16.2001 15.6979 18.398 13.5 21.1092 13.5C23.8203 13.5 26.0183 15.6979 26.0183 18.4091Z" stroke="#333333" stroke-width="2" stroke-linecap="round" stroke-linejoin="round"/>
<path d="M8.39912 23.4231V7.63846M17.8721 14.25V7.63846M9.12781 6.76153V3.25384C9.12781 2.28522 9.7803 1.5 10.5852 1.5H15.686C16.491 1.5 17.1435 2.28522 17.1435 3.25384V6.76153M16.5682 24.3H4.75565C3.14586 24.3 1.84088 22.7295 1.84088 20.7922V10.2692C1.84088 8.33199 3.14586 6.76153 4.75565 6.76153H22.2443C23.8541 6.76153 25.1591 8.33199 25.1591 10.2692V12.75" stroke="#333333" stroke-width="2" stroke-linecap="round"/>
</svg>
