<svg width="32" height="32" viewBox="0 0 32 32" fill="none" xmlns="http://www.w3.org/2000/svg">
<path d="M9.33335 8V9C9.66771 9 9.97994 8.8329 10.1654 8.5547L9.33335 8ZM11.2084 5.18747L10.3763 4.63277V4.63277L11.2084 5.18747ZM20.7917 5.18747L21.6237 4.63277L20.7917 5.18747ZM22.6667 8L21.8346 8.5547C22.0201 8.8329 22.3323 9 22.6667 9V8ZM19 18C19 19.6569 17.6569 21 16 21V23C18.7614 23 21 20.7614 21 18H19ZM16 21C14.3432 21 13 19.6569 13 18H11C11 20.7614 13.2386 23 16 23V21ZM13 18C13 16.3431 14.3432 15 16 15V13C13.2386 13 11 15.2386 11 18H13ZM16 15C17.6569 15 19 16.3431 19 18H21C21 15.2386 18.7614 13 16 13V15ZM10.1654 8.5547L12.0404 5.74217L10.3763 4.63277L8.5013 7.4453L10.1654 8.5547ZM13.4272 5H18.5729V3H13.4272V5ZM19.9596 5.74217L21.8346 8.5547L23.4987 7.4453L21.6237 4.63277L19.9596 5.74217ZM18.5729 5C19.1301 5 19.6505 5.2785 19.9596 5.74217L21.6237 4.63277C20.9437 3.6127 19.7988 3 18.5729 3V5ZM12.0404 5.74217C12.3495 5.2785 12.8699 5 13.4272 5V3C12.2012 3 11.0564 3.6127 10.3763 4.63277L12.0404 5.74217ZM28.3334 13.3333V22.6667H30.3334V13.3333H28.3334ZM24 27H8.00002V29H24V27ZM3.66669 22.6667V13.3333H1.66669V22.6667H3.66669ZM8.00002 27C5.60679 27 3.66669 25.0599 3.66669 22.6667H1.66669C1.66669 26.1645 4.50222 29 8.00002 29V27ZM28.3334 22.6667C28.3334 25.0599 26.3933 27 24 27V29C27.4978 29 30.3334 26.1645 30.3334 22.6667H28.3334ZM24 9C26.3933 9 28.3334 10.9401 28.3334 13.3333H30.3334C30.3334 9.83553 27.4978 7 24 7V9ZM8.00002 7C4.50222 7 1.66669 9.83553 1.66669 13.3333H3.66669C3.66669 10.9401 5.60679 9 8.00002 9V7ZM8.00002 9H9.33335V7H8.00002V9ZM24 7H22.6667V9H24V7Z" fill="#333333"/>
<circle cx="16" cy="8.00008" r="1.33333" fill="#333333"/>
</svg>
