<svg width="32" height="32" viewBox="0 0 32 32" fill="none" xmlns="http://www.w3.org/2000/svg">
<path d="M12 17.3333C11.12 17.7733 10.3867 18.4266 9.84002 19.2399C9.53335 19.7066 9.53335 20.2933 9.84002 20.7599C10.3867 21.5733 11.12 22.2266 12 22.6666" stroke="#333333" stroke-width="2" stroke-linecap="round" stroke-linejoin="round"/>
<path d="M20.28 17.3333C21.16 17.7733 21.8934 18.4266 22.44 19.2399C22.7467 19.7066 22.7467 20.2933 22.44 20.7599C21.8934 21.5733 21.16 22.2266 20.28 22.6666" stroke="#333333" stroke-width="2" stroke-linecap="round" stroke-linejoin="round"/>
<path d="M12 29.3334H20C26.6667 29.3334 29.3334 26.6667 29.3334 20.0001V12.0001C29.3334 5.33341 26.6667 2.66675 20 2.66675H12C5.33335 2.66675 2.66669 5.33341 2.66669 12.0001V20.0001C2.66669 26.6667 5.33335 29.3334 12 29.3334Z" stroke="#333333" stroke-width="2" stroke-linecap="round" stroke-linejoin="round"/>
<path d="M2.97333 10.6801L28.6 10.6667" stroke="#333333" stroke-width="2" stroke-linecap="round" stroke-linejoin="round"/>
</svg>
