<svg width="32" height="32" viewBox="0 0 32 32" fill="none" xmlns="http://www.w3.org/2000/svg">
<path d="M13.3334 5.33341V2.66675M18.6667 5.33341V2.66675M18.6667 26.6667V29.3334M13.3334 26.6667V29.3334M26.6667 13.3334H29.3334M26.6667 18.6667H29.3334M5.33335 13.3334H2.66669M5.33335 18.6667H2.66669M10.6667 26.6667H21.3334C24.2789 26.6667 26.6667 24.2789 26.6667 21.3334V10.6667C26.6667 7.72123 24.2789 5.33341 21.3334 5.33341H10.6667C7.72117 5.33341 5.33335 7.72123 5.33335 10.6667V21.3334C5.33335 24.2789 7.72117 26.6667 10.6667 26.6667ZM14.6667 20.0001H17.3334C18.8061 20.0001 20 18.8062 20 17.3334V14.6667C20 13.194 18.8061 12.0001 17.3334 12.0001H14.6667C13.1939 12.0001 12 13.194 12 14.6667V17.3334C12 18.8062 13.1939 20.0001 14.6667 20.0001Z" stroke="#333333" stroke-width="2" stroke-linecap="round" stroke-linejoin="round"/>
</svg>
