<svg width="28" height="28" viewBox="0 0 28 28" fill="none" xmlns="http://www.w3.org/2000/svg">
<path d="M16.345 11.5919C16.5256 12.1138 17.0951 12.3905 17.617 12.2099C18.1389 12.0293 18.4156 11.4598 18.235 10.9379L16.345 11.5919ZM15.4 9.83894L15.4439 8.8399C15.4293 8.83926 15.4147 8.83894 15.4 8.83894V9.83894ZM12.6 14.1167V15.1167V14.1167ZM15.4 18.3945V19.3945V18.3945ZM12.6 18.3945L12.5561 19.3935C12.5707 19.3942 12.5854 19.3945 12.6 19.3945V18.3945ZM11.655 16.6416C11.4744 16.1196 10.9049 15.8429 10.383 16.0235C9.86107 16.2041 9.58438 16.7737 9.76498 17.2956L11.655 16.6416ZM15 7.70005C15 7.14776 14.5523 6.70005 14 6.70005C13.4477 6.70005 13 7.14776 13 7.70005H15ZM13 9.83894C13 10.3912 13.4477 10.8389 14 10.8389C14.5523 10.8389 15 10.3912 15 9.83894H13ZM15 18.3945C15 17.8422 14.5523 17.3945 14 17.3945C13.4477 17.3945 13 17.8422 13 18.3945H15ZM13 20.5334C13 21.0857 13.4477 21.5334 14 21.5334C14.5523 21.5334 15 21.0857 15 20.5334H13ZM18.235 10.9379C18.0314 10.3495 17.6586 9.83378 17.1617 9.45883L15.9571 11.0554C16.1338 11.1887 16.2699 11.3749 16.345 11.5919L18.235 10.9379ZM17.1617 9.45883C16.6645 9.0837 16.0663 8.86727 15.4439 8.8399L15.3561 10.838C15.5713 10.8474 15.7807 10.9223 15.9571 11.0554L17.1617 9.45883ZM15.4 8.83894H12.6V10.8389H15.4V8.83894ZM12.6 8.83894C11.7718 8.83894 10.9814 9.17418 10.4015 9.76481L11.8286 11.166C12.0364 10.9544 12.3142 10.8389 12.6 10.8389V8.83894ZM10.4015 9.76481C9.82223 10.3548 9.5 11.1512 9.5 11.9778H11.5C11.5 11.6699 11.6203 11.3782 11.8286 11.166L10.4015 9.76481ZM9.5 11.9778C9.5 12.8044 9.82223 13.6008 10.4015 14.1908L11.8286 12.7897C11.6203 12.5774 11.5 12.2857 11.5 11.9778H9.5ZM10.4015 14.1908C10.9814 14.7815 11.7718 15.1167 12.6 15.1167V13.1167C12.3142 13.1167 12.0364 13.0013 11.8286 12.7897L10.4015 14.1908ZM12.6 15.1167H15.4V13.1167H12.6V15.1167ZM15.4 15.1167C15.6858 15.1167 15.9636 15.2322 16.1714 15.4438L17.5985 14.0426C17.0186 13.452 16.2282 13.1167 15.4 13.1167V15.1167ZM16.1714 15.4438C16.3797 15.656 16.5 15.9477 16.5 16.2556H18.5C18.5 15.429 18.1778 14.6326 17.5985 14.0426L16.1714 15.4438ZM16.5 16.2556C16.5 16.5635 16.3797 16.8552 16.1714 17.0674L17.5985 18.4686C18.1778 17.8786 18.5 17.0822 18.5 16.2556H16.5ZM16.1714 17.0674C15.9636 17.279 15.6858 17.3945 15.4 17.3945V19.3945C16.2282 19.3945 17.0186 19.0592 17.5985 18.4686L16.1714 17.0674ZM15.4 17.3945H12.6V19.3945H15.4V17.3945ZM12.6439 17.3955C12.4287 17.386 12.2193 17.3111 12.0429 17.178L10.8383 18.7746C11.3355 19.1497 11.9337 19.3662 12.5561 19.3935L12.6439 17.3955ZM12.0429 17.178C11.8662 17.0447 11.7301 16.8585 11.655 16.6416L9.76498 17.2956C9.96856 17.8839 10.3414 18.3996 10.8383 18.7746L12.0429 17.178ZM13 7.70005V9.83894H15V7.70005H13ZM13 18.3945V20.5334H15V18.3945H13ZM24.2 14C24.2 19.6334 19.6333 24.2 14 24.2V26.2C20.7379 26.2 26.2 20.7379 26.2 14H24.2ZM14 24.2C8.3667 24.2 3.8 19.6334 3.8 14H1.8C1.8 20.7379 7.26213 26.2 14 26.2V24.2ZM3.8 14C3.8 8.36674 8.3667 3.80005 14 3.80005V1.80005C7.26213 1.80005 1.8 7.26217 1.8 14H3.8ZM14 3.80005C19.6333 3.80005 24.2 8.36674 24.2 14H26.2C26.2 7.26217 20.7379 1.80005 14 1.80005V3.80005Z" fill="#333333"/>
</svg>
