<svg id="svg" version="1.1" xmlns="http://www.w3.org/2000/svg" xmlns:xlink="http://www.w3.org/1999/xlink" width="400" height="400" viewBox="0, 0, 400,400"><g id="svgg"><path id="path0" d="M284.916 60.716 C 249.442 62.731,224.619 82.549,216.581 115.275 C 214.098 125.383,214.037 126.327,213.876 156.890 L 213.730 184.730 187.684 184.730 L 161.639 184.730 161.639 214.898 L 161.639 245.065 187.709 245.065 L 213.780 245.065 213.780 322.533 L 213.780 400.000 244.879 400.000 L 275.978 400.000 275.978 322.533 L 275.978 245.065 301.874 245.065 C 322.260 245.065,327.803 244.966,327.925 244.600 C 328.083 244.127,335.568 185.892,335.568 185.140 C 335.568 184.845,327.190 184.730,305.750 184.730 L 275.933 184.730 276.066 160.987 C 276.222 133.055,276.433 131.556,281.058 125.492 C 286.734 118.049,293.358 116.582,321.322 116.577 L 337.803 116.574 337.803 89.788 L 337.803 63.001 336.778 62.790 C 330.709 61.535,295.371 60.122,284.916 60.716 " stroke="none" fill="#3c549c" fill-rule="evenodd"></path><path id="path1" d="M284.091 60.610 C 285.173 60.686,286.849 60.685,287.815 60.608 C 288.781 60.532,287.896 60.470,285.847 60.471 C 283.799 60.472,283.008 60.535,284.091 60.610 M298.026 60.612 C 299.808 60.680,302.825 60.681,304.730 60.613 C 306.635 60.545,305.177 60.489,301.490 60.489 C 297.803 60.489,296.244 60.544,298.026 60.612 M277.281 60.971 C 245.237 65.313,222.722 85.600,215.855 116.319 C 214.683 121.559,213.697 129.082,213.879 131.387 L 214.018 133.147 214.087 131.099 C 214.125 129.972,214.478 126.860,214.872 124.183 C 220.145 88.345,242.568 66.145,278.399 61.289 C 280.881 60.953,281.502 60.790,280.261 60.802 C 279.236 60.811,277.896 60.887,277.281 60.971 M312.011 60.980 C 312.882 61.059,314.306 61.059,315.177 60.980 C 316.047 60.902,315.335 60.838,313.594 60.838 C 311.853 60.838,311.141 60.902,312.011 60.980 M319.452 61.349 C 320.113 61.431,321.286 61.433,322.059 61.352 C 322.831 61.271,322.291 61.204,320.857 61.202 C 319.423 61.201,318.790 61.267,319.452 61.349 M325.426 61.722 C 326.095 61.805,327.101 61.804,327.660 61.719 C 328.220 61.634,327.672 61.566,326.443 61.568 C 325.214 61.570,324.756 61.640,325.426 61.722 M332.216 62.210 C 333.957 62.399,335.926 62.649,336.592 62.765 L 337.803 62.976 337.803 89.771 L 337.803 116.566 320.391 116.667 L 302.980 116.767 320.577 116.857 L 338.175 116.946 338.175 89.798 L 338.175 62.651 337.337 62.447 C 336.876 62.335,334.823 62.158,332.775 62.055 L 329.050 61.866 332.216 62.210 M297.393 117.213 C 288.425 118.461,281.761 122.788,278.780 129.299 C 276.200 134.933,276.212 134.791,276.066 160.987 L 275.933 184.730 305.750 184.730 C 328.283 184.730,335.568 184.837,335.568 185.166 C 335.568 185.406,334.638 192.801,333.501 201.599 C 332.364 210.398,331.488 217.869,331.554 218.202 C 331.620 218.536,331.971 216.462,332.334 213.594 C 333.049 207.949,333.946 201.055,335.208 191.514 C 335.649 188.178,335.916 185.203,335.801 184.903 C 335.619 184.430,331.664 184.358,306.157 184.358 L 276.723 184.358 276.723 160.953 C 276.723 134.635,276.716 134.706,279.580 128.869 C 282.645 122.620,289.560 118.577,299.255 117.366 C 301.187 117.125,301.428 117.042,300.186 117.049 C 299.264 117.054,298.007 117.128,297.393 117.213 M213.535 136.127 C 213.537 137.765,213.602 138.389,213.681 137.513 C 213.760 136.637,213.759 135.297,213.679 134.534 C 213.599 133.771,213.534 134.488,213.535 136.127 M206.425 184.634 C 207.807 184.705,210.070 184.705,211.453 184.634 C 212.835 184.562,211.704 184.503,208.939 184.503 C 206.173 184.503,205.042 184.562,206.425 184.634 M330.757 222.936 C 330.493 225.096,330.353 226.939,330.446 227.032 C 330.539 227.125,330.832 225.435,331.099 223.277 C 331.365 221.120,331.505 219.277,331.410 219.182 C 331.315 219.087,331.021 220.776,330.757 222.936 M330.075 228.864 C 330.079 229.683,330.156 229.975,330.245 229.511 C 330.334 229.048,330.330 228.378,330.237 228.022 C 330.144 227.666,330.071 228.045,330.075 228.864 M329.268 234.482 C 329.004 236.642,328.863 238.485,328.956 238.578 C 329.049 238.670,329.343 236.981,329.609 234.823 C 329.875 232.665,330.015 230.822,329.920 230.727 C 329.825 230.632,329.532 232.322,329.268 234.482 M328.586 240.410 C 328.590 241.229,328.666 241.520,328.755 241.057 C 328.844 240.594,328.841 239.923,328.748 239.567 C 328.654 239.211,328.581 239.590,328.586 240.410 M328.100 243.389 L 327.933 244.879 301.955 244.975 L 275.978 245.070 276.068 314.062 L 276.159 383.054 276.351 314.339 C 276.457 276.546,276.584 245.582,276.633 245.531 C 276.682 245.480,288.182 245.438,302.189 245.438 C 330.216 245.438,328.677 245.573,328.405 243.134 C 328.267 241.905,328.266 241.906,328.100 243.389 " stroke="none" fill="#3c549c" fill-rule="evenodd"></path></g></svg>