<svg width="32" height="32" viewBox="0 0 32 32" fill="none" xmlns="http://www.w3.org/2000/svg">
<path d="M16 18.6667C17.4727 18.6667 18.6667 17.4728 18.6667 16.0001C18.6667 14.5273 17.4727 13.3334 16 13.3334C14.5272 13.3334 13.3333 14.5273 13.3333 16.0001C13.3333 17.4728 14.5272 18.6667 16 18.6667ZM16 18.6667V29.3334M9.33332 8.00008H22.6667C24.1394 8.00008 25.3333 6.80617 25.3333 5.33341C25.3333 3.86066 24.1394 2.66675 22.6667 2.66675H9.33332C7.86056 2.66675 6.66666 3.86066 6.66666 5.33341C6.66666 6.80617 7.86056 8.00008 9.33332 8.00008ZM9.32262 8.00008H22.6774L24.9627 15.1043C25.6253 16.7773 25.3906 18.6416 24.3301 20.1292L17.2691 28.7015C16.6685 29.5441 15.3315 29.5441 14.7308 28.7015L7.66983 20.1292C6.60942 18.6416 6.37473 16.7773 7.03725 15.1043L9.32262 8.00008Z" stroke="#333333" stroke-width="2"/>
</svg>
