<svg width="32" height="32" viewBox="0 0 32 32" fill="none" xmlns="http://www.w3.org/2000/svg">
<path d="M13.3504 29.0701L13.548 28.0899L13.3504 29.0701ZM25.407 25.4493L24.7014 24.7406L25.407 25.4493ZM15.6667 10.0001C15.6667 8.34323 14.3235 7.00008 12.6667 7.00008V9.00008C13.219 9.00008 13.6667 9.4478 13.6667 10.0001H15.6667ZM12.6667 7.00008C11.0098 7.00008 9.66669 8.34323 9.66669 10.0001H11.6667C11.6667 9.4478 12.1144 9.00008 12.6667 9.00008V7.00008ZM9.66669 10.0001C9.66669 11.6569 11.0098 13.0001 12.6667 13.0001V11.0001C12.1144 11.0001 11.6667 10.5524 11.6667 10.0001H9.66669ZM12.6667 13.0001C14.3235 13.0001 15.6667 11.6569 15.6667 10.0001H13.6667C13.6667 10.5524 13.219 11.0001 12.6667 11.0001V13.0001ZM25.6667 13.3334C25.6667 11.6766 24.3235 10.3334 22.6667 10.3334V12.3334C23.219 12.3334 23.6667 12.7811 23.6667 13.3334H25.6667ZM22.6667 10.3334C21.0098 10.3334 19.6667 11.6766 19.6667 13.3334H21.6667C21.6667 12.7811 22.1144 12.3334 22.6667 12.3334V10.3334ZM19.6667 13.3334C19.6667 14.9903 21.0098 16.3334 22.6667 16.3334V14.3334C22.1144 14.3334 21.6667 13.8857 21.6667 13.3334H19.6667ZM22.6667 16.3334C24.3235 16.3334 25.6667 14.9903 25.6667 13.3334H23.6667C23.6667 13.8857 23.219 14.3334 22.6667 14.3334V16.3334ZM13.6667 20.6667C13.6667 19.0099 12.3235 17.6667 10.6667 17.6667V19.6667C11.219 19.6667 11.6667 20.1145 11.6667 20.6667H13.6667ZM10.6667 17.6667C9.00983 17.6667 7.66669 19.0099 7.66669 20.6667H9.66669C9.66669 20.1145 10.1144 19.6667 10.6667 19.6667V17.6667ZM7.66669 20.6667C7.66669 22.3236 9.00983 23.6667 10.6667 23.6667V21.6667C10.1144 21.6667 9.66669 21.219 9.66669 20.6667H7.66669ZM10.6667 23.6667C12.3235 23.6667 13.6667 22.3236 13.6667 20.6667H11.6667C11.6667 21.219 11.219 21.6667 10.6667 21.6667V23.6667ZM13.548 28.0899C7.91109 26.9533 3.66669 21.9713 3.66669 16.0001H1.66669C1.66669 22.9421 6.60076 28.7294 13.1527 30.0504L13.548 28.0899ZM3.66669 16.0001C3.66669 9.18857 9.18851 3.66675 16 3.66675V1.66675C8.08394 1.66675 1.66669 8.084 1.66669 16.0001H3.66669ZM16 3.66675C22.8115 3.66675 28.3334 9.18857 28.3334 16.0001H30.3334C30.3334 8.084 23.9161 1.66675 16 1.66675V3.66675ZM18.963 19.963C20.0471 19.963 20.9259 20.8419 20.9259 21.926H22.9259C22.9259 19.7373 21.1517 17.963 18.963 17.963V19.963ZM17 21.926C17 20.8419 17.8789 19.963 18.963 19.963V17.963C16.7743 17.963 15 19.7373 15 21.926H17ZM20.9259 21.926V23.6444H22.9259V21.926H20.9259ZM28.3334 16.0001C28.3334 19.416 26.9459 22.5061 24.7014 24.7406L26.1125 26.1579C28.7186 23.5635 30.3334 19.9694 30.3334 16.0001H28.3334ZM15 21.926V26.6668H17V21.926H15ZM20.9259 23.6444C20.9259 24.9887 21.6355 26.1322 22.6622 26.6912C23.7263 27.2705 25.0821 27.1838 26.1125 26.1579L24.7014 24.7406C24.329 25.1114 23.9443 25.112 23.6186 24.9346C23.2554 24.7369 22.9259 24.2797 22.9259 23.6444H20.9259ZM13.1527 30.0504C15.3533 30.4941 17 28.6227 17 26.6668H15C15 27.6564 14.2349 28.2284 13.548 28.0899L13.1527 30.0504Z" fill="#333333"/>
</svg>
