<svg width="27" height="27" viewBox="0 0 27 27" fill="none" xmlns="http://www.w3.org/2000/svg">
<path fill-rule="evenodd" clip-rule="evenodd" d="M15.3858 4.8558C14.9049 2.8814 12.0951 2.8814 11.6142 4.8558C11.5424 5.15249 11.4015 5.42803 11.2031 5.66001C11.0047 5.89198 10.7543 6.07384 10.4723 6.19077C10.1904 6.3077 9.88476 6.35641 9.58041 6.33293C9.27606 6.30944 8.98155 6.21444 8.72085 6.05564C6.98436 4.99756 4.99727 6.98462 6.05536 8.72108C6.73882 9.84244 6.13257 11.3055 4.85678 11.6156C2.88107 12.0953 2.88107 14.9063 4.85678 15.3847C5.15355 15.4566 5.42914 15.5976 5.66112 15.7961C5.8931 15.9947 6.0749 16.2452 6.19172 16.5274C6.30855 16.8095 6.35708 17.1152 6.33339 17.4196C6.30969 17.7241 6.21443 18.0186 6.05536 18.2792C4.99727 20.0157 6.98436 22.0028 8.72085 20.9447C8.9815 20.7856 9.27604 20.6904 9.58047 20.6667C9.8849 20.643 10.1906 20.6915 10.4728 20.8083C10.7549 20.9251 11.0054 21.1069 11.204 21.3389C11.4026 21.5709 11.5435 21.8465 11.6154 22.1432C12.0951 24.1189 14.9062 24.1189 15.3846 22.1432C15.4567 21.8466 15.5978 21.5712 15.7964 21.3394C15.995 21.1076 16.2455 20.9259 16.5276 20.8091C16.8096 20.6923 17.1152 20.6438 17.4196 20.6673C17.7239 20.6909 18.0184 20.7859 18.2791 20.9447C20.0156 22.0028 22.0027 20.0157 20.9446 18.2792C20.7859 18.0185 20.6908 17.724 20.6673 17.4197C20.6437 17.1153 20.6923 16.8097 20.8091 16.5277C20.9259 16.2457 21.1076 15.9952 21.3394 15.7966C21.5712 15.5979 21.8466 15.4568 22.1432 15.3847C24.1189 14.905 24.1189 12.094 22.1432 11.6156C21.8465 11.5437 21.5709 11.4027 21.3389 11.2042C21.1069 11.0056 20.9251 10.7551 20.8083 10.473C20.6915 10.1908 20.6429 9.88512 20.6666 9.58069C20.6903 9.27626 20.7856 8.98173 20.9446 8.72108C22.0027 6.98462 20.0156 4.99756 18.2791 6.05564C18.0185 6.2147 17.724 6.30996 17.4195 6.33366C17.1151 6.35735 16.8094 6.30882 16.5272 6.192C16.2451 6.07517 15.9946 5.89338 15.796 5.6614C15.5974 5.42943 15.4565 5.15384 15.3846 4.85707L15.3858 4.8558Z" stroke="white" stroke-width="2"/>
<path d="M15.75 13.5C15.75 14.7426 14.7426 15.75 13.5 15.75C12.2574 15.75 11.25 14.7426 11.25 13.5C11.25 12.2574 12.2574 11.25 13.5 11.25C14.7426 11.25 15.75 12.2574 15.75 13.5Z" stroke="white" stroke-width="2"/>
</svg>
