<svg width="32" height="32" viewBox="0 0 32 32" fill="none" xmlns="http://www.w3.org/2000/svg">
<path d="M29.3334 20.0001V12.0001C29.3334 5.33341 26.6667 2.66675 20 2.66675H12C5.33335 2.66675 2.66669 5.33341 2.66669 12.0001V20.0001C2.66669 26.6667 5.33335 29.3334 12 29.3334H20C26.6667 29.3334 29.3334 26.6667 29.3334 20.0001Z" stroke="#333333" stroke-width="2" stroke-linecap="round" stroke-linejoin="round"/>
<path d="M3.36005 9.48022H28.64" stroke="#333333" stroke-width="2" stroke-linecap="round" stroke-linejoin="round"/>
<path d="M11.36 2.81348V9.29348" stroke="#333333" stroke-width="2" stroke-linecap="round" stroke-linejoin="round"/>
<path d="M20.64 2.81348V8.69348" stroke="#333333" stroke-width="2" stroke-linecap="round" stroke-linejoin="round"/>
<path d="M13 19.2669V17.6669C13 15.6136 14.4533 14.7736 16.2267 15.8002L17.6133 16.6002L19 17.4002C20.7733 18.4269 20.7733 20.1069 19 21.1336L17.6133 21.9336L16.2267 22.7336C14.4533 23.7602 13 22.9202 13 20.8669V19.2669V19.2669Z" stroke="#333333" stroke-width="2" stroke-miterlimit="10" stroke-linecap="round" stroke-linejoin="round"/>
</svg>
