<?xml version="1.0" encoding="UTF-8"?>
<!DOCTYPE svg PUBLIC "-//W3C//DTD SVG 1.1//EN" "http://www.w3.org/Graphics/SVG/1.1/DTD/svg11.dtd">
<svg xmlns="http://www.w3.org/2000/svg" version="1.1" width="512px" height="512px" style="shape-rendering:geometricPrecision; text-rendering:geometricPrecision; image-rendering:optimizeQuality; fill-rule:evenodd; clip-rule:evenodd" xmlns:xlink="http://www.w3.org/1999/xlink">
<g><path style="opacity:0.925" fill="#000000" d="M 82.5,-0.5 C 89.5,-0.5 96.5,-0.5 103.5,-0.5C 147.703,7.20272 173.87,33.2027 182,77.5C 182.667,85.1667 182.667,92.8333 182,100.5C 180.645,107.902 179.311,115.235 178,122.5C 184.5,129 191,135.5 197.5,142C 198.167,142.667 198.833,142.667 199.5,142C 208.756,129.436 220.423,126.436 234.5,133C 236,134.5 237.5,136 239,137.5C 247.833,128.667 256.667,119.833 265.5,111C 285.72,99.8487 302.886,103.349 317,121.5C 320.555,128.388 322.222,135.721 322,143.5C 340.79,142.745 353.123,151.412 359,169.5C 359.79,175.552 359.624,181.552 358.5,187.5C 380.474,191.805 391.474,205.138 391.5,227.5C 414.734,230.232 425.234,243.232 423,266.5C 421.81,271.213 419.81,275.547 417,279.5C 403.667,292.833 390.333,306.167 377,319.5C 376.333,320.167 376.333,320.833 377,321.5C 381.045,325.881 385.378,329.881 390,333.5C 435.274,319.924 471.608,332.257 499,370.5C 505.21,381.221 509.377,392.555 511.5,404.5C 511.5,413.5 511.5,422.5 511.5,431.5C 510.36,439.065 507.36,445.899 502.5,452C 495.079,455.758 488.079,455.091 481.5,450C 465.805,433.971 449.805,418.304 433.5,403C 415.01,396.737 404.01,403.07 400.5,422C 400.875,426.88 402.375,431.38 405,435.5C 420.333,450.833 435.667,466.167 451,481.5C 458.8,493.767 455.966,502.6 442.5,508C 436.735,509.386 431.069,510.552 425.5,511.5C 420.5,511.5 415.5,511.5 410.5,511.5C 380.674,508 357.508,493.667 341,468.5C 337.428,463.832 336.761,458.832 339,453.5C 342.148,450.449 345.648,449.949 349.5,452C 369.524,486.846 399.191,500.179 438.5,492C 422.946,476.446 407.446,460.946 392,445.5C 381.387,427.48 382.554,410.313 395.5,394C 414.673,380.798 433.339,381.465 451.5,396C 465.375,409.708 479.041,423.541 492.5,437.5C 501.163,395.326 485.83,365.493 446.5,348C 426.581,341.731 407.081,342.897 388,351.5C 386.112,351.204 384.278,350.704 382.5,350C 374.833,342.333 367.167,334.667 359.5,327C 341.396,327.208 329.896,318.708 325,301.5C 324.337,296.463 324.504,291.463 325.5,286.5C 305.711,283.711 294.711,272.377 292.5,252.5C 272.068,253.966 253.901,248.3 238,235.5C 236.627,244.833 233.794,253.667 229.5,262C 269.028,301.861 308.861,341.361 349,380.5C 350.783,382.289 351.616,384.456 351.5,387C 349.674,393.146 347.841,399.312 346,405.5C 345.165,413.564 344.165,421.564 343,429.5C 337.99,434.675 333.324,434.341 329,428.5C 327.558,415.486 329.058,402.819 333.5,390.5C 329.084,384.579 324.084,379.079 318.5,374C 311.022,376.55 303.356,378.883 295.5,381C 282.807,381.105 270.14,380.771 257.5,380C 254.328,381.752 251.328,383.752 248.5,386C 231.667,402.833 214.833,419.667 198,436.5C 199.319,442.36 199.653,448.36 199,454.5C 198.241,457.785 196.908,460.785 195,463.5C 180.5,478 166,492.5 151.5,507C 148.185,508.83 144.851,510.33 141.5,511.5C 137.833,511.5 134.167,511.5 130.5,511.5C 127.592,510.046 124.592,508.546 121.5,507C 85.639,470.805 49.4723,434.972 13,399.5C 4.33776,389.201 3.33776,378.201 10,366.5C 25.5602,350.271 41.7268,334.771 58.5,320C 65.7936,316.583 72.9603,316.75 80,320.5C 94.6959,306.138 109.029,291.471 123,276.5C 131.054,267.065 137.054,256.398 141,244.5C 142.18,235.55 142.847,226.55 143,217.5C 143.696,212.384 144.863,207.384 146.5,202.5C 138.681,194.181 130.681,186.014 122.5,178C 115.235,179.311 107.902,180.645 100.5,182C 64.2006,185.58 35.3673,172.747 14,143.5C 6.87518,131.94 2.04184,119.607 -0.5,106.5C -0.5,97.5 -0.5,88.5 -0.5,79.5C 0.604526,71.3783 3.93786,64.2116 9.5,58C 16.1564,54.8583 22.4897,55.525 28.5,60C 43.8333,75.3333 59.1667,90.6667 74.5,106C 83.8333,112 93.1667,112 102.5,106C 111.354,96.7269 112.521,86.5603 106,75.5C 91.6667,59.8333 76.6667,44.8333 61,30.5C 52.5654,19.8613 54.0654,11.0279 65.5,4C 71.175,1.99977 76.8417,0.499767 82.5,-0.5 Z M 83.5,15.5 C 125.591,14.1172 152.757,33.4505 165,73.5C 168.174,89.3952 166.507,104.729 160,119.5C 159.333,122.167 159.333,124.833 160,127.5C 169.014,136.348 177.848,145.348 186.5,154.5C 176.167,165.5 165.5,176.167 154.5,186.5C 145.318,177.484 135.984,168.651 126.5,160C 124.167,159.333 121.833,159.333 119.5,160C 91.011,171.634 64.6777,167.968 40.5,149C 18.2762,128.163 10.9428,102.996 18.5,73.5C 33.6528,88.1526 48.6528,102.986 63.5,118C 79.6332,128.914 95.9666,129.248 112.5,119C 125.889,105.87 129.389,90.3701 123,72.5C 121,69.1667 119,65.8333 117,62.5C 102.5,48 88,33.5 73.5,19C 76.7397,17.3079 80.0731,16.1412 83.5,15.5 Z M 282.5,120.5 C 295.925,119.929 303.591,126.262 305.5,139.5C 305.239,143.45 304.072,147.117 302,150.5C 293.667,158.833 285.333,167.167 277,175.5C 268.167,166.667 259.333,157.833 250.5,149C 258.833,140.667 267.167,132.333 275.5,124C 277.925,122.787 280.259,121.621 282.5,120.5 Z M 219.5,145.5 C 221.199,145.34 222.866,145.506 224.5,146C 251.195,172.361 277.528,199.028 303.5,226C 296.901,235.426 287.901,238.759 276.5,236C 266.634,233.899 257.634,229.899 249.5,224C 241.5,216 233.5,208 225.5,200C 216.22,195.522 211.72,198.355 212,208.5C 223.122,222.509 224.455,237.509 216,253.5C 212.066,260.367 207.399,266.7 202,272.5C 200.978,283.41 205.478,286.576 215.5,282C 216.711,279.1 218.711,277.434 221.5,277C 249.347,304.68 277.014,332.514 304.5,360.5C 301.218,362.873 297.552,364.373 293.5,365C 280.521,364.29 267.521,363.957 254.5,364C 248.073,366.105 242.406,369.439 237.5,374C 220.653,391.014 203.653,407.847 186.5,424.5C 173.347,411.847 160.347,399.014 147.5,386C 136.595,385.044 133.429,389.544 138,399.5C 152.667,414.167 167.333,428.833 182,443.5C 184,446.833 184,450.167 182,453.5C 168.5,467 155,480.5 141.5,494C 138.97,495.422 136.303,495.755 133.5,495C 96.361,458.861 59.5277,422.361 23,385.5C 21.1497,382.537 21.1497,379.537 23,376.5C 36.5,363 50,349.5 63.5,336C 65.3506,335.163 67.1839,334.329 69,333.5C 70.8161,334.329 72.6494,335.163 74.5,336C 87.5,349 100.5,362 113.5,375C 123.68,378.66 127.846,375.16 126,364.5C 114.833,353.333 103.667,342.167 92.5,331C 108.729,315.44 124.229,299.273 139,282.5C 154.804,262.307 161.804,239.307 160,213.5C 161.864,207.44 164.53,201.774 168,196.5C 185.062,179.271 202.228,162.271 219.5,145.5 Z M 322.5,158.5 C 341.871,161.245 347.704,171.578 340,189.5C 331.667,197.833 323.333,206.167 315,214.5C 306.531,205.03 297.697,195.863 288.5,187C 296.863,178.303 305.53,169.969 314.5,162C 317.158,160.522 319.825,159.355 322.5,158.5 Z M 351.5,204.5 C 370.514,204.891 377.681,214.225 373,232.5C 362.53,243.971 351.697,255.137 340.5,266C 328.928,273.309 319.095,271.475 311,260.5C 310.011,257.544 309.178,254.544 308.5,251.5C 309.178,248.456 310.011,245.456 311,242.5C 321.47,231.029 332.303,219.863 343.5,209C 346.099,207.205 348.766,205.705 351.5,204.5 Z M 389.5,243.5 C 405.354,245.209 410.521,253.542 405,268.5C 391.833,281.667 378.667,294.833 365.5,308C 354.418,313.307 346.252,310.474 341,299.5C 340.113,294.928 340.78,290.595 343,286.5C 356.167,273.333 369.333,260.167 382.5,247C 384.925,245.787 387.259,244.621 389.5,243.5 Z"/></g>
</svg>
